solid CATIA STL
  facet normal  0.000000e+000  -0.000000e+000 -1.000000e+000
    outer loop
      vertex -2.315000e+001 -2.315000e+001  0.000000e+000
      vertex  8.500000e+000 -8.500000e+000  0.000000e+000
      vertex  2.315000e+001 -2.315000e+001  0.000000e+000
    endloop
  endfacet
  facet normal  0.000000e+000  0.000000e+000 -1.000000e+000
    outer loop
      vertex  2.315000e+001 -2.315000e+001  0.000000e+000
      vertex  8.500000e+000 -8.500000e+000  0.000000e+000
      vertex  2.065000e+001 -7.301276e+000  0.000000e+000
    endloop
  endfacet
  facet normal  0.000000e+000  0.000000e+000 -1.000000e+000
    outer loop
      vertex  2.315000e+001 -2.315000e+001  0.000000e+000
      vertex  2.065000e+001 -7.301276e+000  0.000000e+000
      vertex  2.315000e+001 -7.301276e+000  0.000000e+000
    endloop
  endfacet
  facet normal  0.000000e+000  0.000000e+000 -9.999999e-001
    outer loop
      vertex  8.500000e+000 -8.500000e+000  0.000000e+000
      vertex -2.315000e+001 -2.315000e+001  0.000000e+000
      vertex -8.500000e+000 -8.500000e+000  0.000000e+000
    endloop
  endfacet
  facet normal  -0.000000e+000  0.000000e+000 -1.000000e+000
    outer loop
      vertex -8.500000e+000 -8.500000e+000  0.000000e+000
      vertex -2.315000e+001 -2.315000e+001  0.000000e+000
      vertex -2.315000e+001  2.315000e+001  0.000000e+000
    endloop
  endfacet
  facet normal  0.000000e+000  0.000000e+000 -9.999999e-001
    outer loop
      vertex -8.500000e+000 -8.500000e+000  0.000000e+000
      vertex -2.315000e+001  2.315000e+001  0.000000e+000
      vertex -8.500000e+000  8.500000e+000  0.000000e+000
    endloop
  endfacet
  facet normal  0.000000e+000  0.000000e+000 -1.000000e+000
    outer loop
      vertex -8.500000e+000  8.500000e+000  0.000000e+000
      vertex -2.315000e+001  2.315000e+001  0.000000e+000
      vertex  2.315000e+001  2.315000e+001  0.000000e+000
    endloop
  endfacet
  facet normal  0.000000e+000  0.000000e+000 -9.999999e-001
    outer loop
      vertex -8.500000e+000  8.500000e+000  0.000000e+000
      vertex  2.315000e+001  2.315000e+001  0.000000e+000
      vertex  8.500000e+000  8.500000e+000  0.000000e+000
    endloop
  endfacet
  facet normal  0.000000e+000  0.000000e+000 -9.999999e-001
    outer loop
      vertex  8.500000e+000  8.500000e+000  0.000000e+000
      vertex  2.315000e+001  2.315000e+001  0.000000e+000
      vertex  2.315000e+001  6.666435e+000  0.000000e+000
    endloop
  endfacet
  facet normal -7.105427e-016 -5.677165e-015 -1.000000e+000
    outer loop
      vertex  8.500000e+000  8.500000e+000  0.000000e+000
      vertex  2.315000e+001  6.666435e+000  0.000000e+000
      vertex  2.065000e+001  6.666435e+000  1.776357e-015
    endloop
  endfacet
  facet normal  0.000000e+000  0.000000e+000 -1.000000e+000
    outer loop
      vertex  8.500000e+000 -8.500000e+000  0.000000e+000
      vertex  8.500000e+000  8.500000e+000  0.000000e+000
      vertex  2.065000e+001 -7.301276e+000  0.000000e+000
    endloop
  endfacet
  facet normal  1.653944e-016  1.271759e-016 -1.000000e+000
    outer loop
      vertex  2.065000e+001 -7.301276e+000  0.000000e+000
      vertex  8.500000e+000  8.500000e+000  0.000000e+000
      vertex  2.065000e+001  6.666435e+000  1.776357e-015
    endloop
  endfacet
  facet normal  1.000000e+000  -0.000000e+000  0.000000e+000
    outer loop
      vertex  2.315000e+001 -7.301276e+000  1.100000e+001
      vertex  2.315000e+001 -2.315000e+001  1.100000e+001
      vertex  2.315000e+001 -7.301276e+000  0.000000e+000
    endloop
  endfacet
  facet normal  1.000000e+000  0.000000e+000  0.000000e+000
    outer loop
      vertex  2.315000e+001 -7.301276e+000  0.000000e+000
      vertex  2.315000e+001 -2.315000e+001  1.100000e+001
      vertex  2.315000e+001 -2.315000e+001  0.000000e+000
    endloop
  endfacet
  facet normal  1.000000e+000  -0.000000e+000  0.000000e+000
    outer loop
      vertex  2.315000e+001  2.315000e+001  1.100000e+001
      vertex  2.315000e+001  6.666435e+000  1.100000e+001
      vertex  2.315000e+001  2.315000e+001  0.000000e+000
    endloop
  endfacet
  facet normal  1.000000e+000  0.000000e+000  0.000000e+000
    outer loop
      vertex  2.315000e+001  2.315000e+001  0.000000e+000
      vertex  2.315000e+001  6.666435e+000  1.100000e+001
      vertex  2.315000e+001  6.666435e+000  0.000000e+000
    endloop
  endfacet
  facet normal -1.000000e+000  0.000000e+000  0.000000e+000
    outer loop
      vertex  2.100000e+001 -7.301276e+000  2.000000e+000
      vertex  2.100000e+001 -2.100000e+001  2.000000e+000
      vertex  2.100000e+001 -7.301277e+000  1.100000e+001
    endloop
  endfacet
  facet normal -9.999999e-001  -0.000000e+000  0.000000e+000
    outer loop
      vertex  2.100000e+001 -7.301277e+000  1.100000e+001
      vertex  2.100000e+001 -2.100000e+001  2.000000e+000
      vertex  2.100000e+001 -2.100000e+001  1.100000e+001
    endloop
  endfacet
  facet normal -1.000000e+000  0.000000e+000  0.000000e+000
    outer loop
      vertex  2.100000e+001  2.100000e+001  2.000000e+000
      vertex  2.100000e+001  6.666435e+000  2.000000e+000
      vertex  2.100000e+001  2.100000e+001  1.100000e+001
    endloop
  endfacet
  facet normal -1.000000e+000  -0.000000e+000  0.000000e+000
    outer loop
      vertex  2.100000e+001  2.100000e+001  1.100000e+001
      vertex  2.100000e+001  6.666435e+000  2.000000e+000
      vertex  2.100000e+001  6.666435e+000  1.100000e+001
    endloop
  endfacet
  facet normal  -0.000000e+000  0.000000e+000  1.000000e+000
    outer loop
      vertex  2.315000e+001 -7.301276e+000  1.100000e+001
      vertex  2.100000e+001 -7.301277e+000  1.100000e+001
      vertex  2.315000e+001 -2.315000e+001  1.100000e+001
    endloop
  endfacet
  facet normal  0.000000e+000  0.000000e+000  1.000000e+000
    outer loop
      vertex  2.315000e+001 -2.315000e+001  1.100000e+001
      vertex  2.100000e+001 -7.301277e+000  1.100000e+001
      vertex  2.100000e+001 -2.100000e+001  1.100000e+001
    endloop
  endfacet
  facet normal  0.000000e+000  0.000000e+000  1.000000e+000
    outer loop
      vertex  2.315000e+001 -2.315000e+001  1.100000e+001
      vertex  2.100000e+001 -2.100000e+001  1.100000e+001
      vertex -2.315000e+001 -2.315000e+001  1.100000e+001
    endloop
  endfacet
  facet normal  0.000000e+000  0.000000e+000  1.000000e+000
    outer loop
      vertex -2.315000e+001 -2.315000e+001  1.100000e+001
      vertex  2.100000e+001 -2.100000e+001  1.100000e+001
      vertex -2.100000e+001 -2.100000e+001  1.100000e+001
    endloop
  endfacet
  facet normal  0.000000e+000  0.000000e+000  1.000000e+000
    outer loop
      vertex -2.315000e+001 -2.315000e+001  1.100000e+001
      vertex -2.100000e+001 -2.100000e+001  1.100000e+001
      vertex -2.315000e+001  2.315000e+001  1.100000e+001
    endloop
  endfacet
  facet normal  0.000000e+000  0.000000e+000  1.000000e+000
    outer loop
      vertex -2.315000e+001  2.315000e+001  1.100000e+001
      vertex -2.100000e+001 -2.100000e+001  1.100000e+001
      vertex -2.100000e+001  2.100000e+001  1.100000e+001
    endloop
  endfacet
  facet normal  0.000000e+000  -0.000000e+000  1.000000e+000
    outer loop
      vertex -2.315000e+001  2.315000e+001  1.100000e+001
      vertex -2.100000e+001  2.100000e+001  1.100000e+001
      vertex  2.315000e+001  2.315000e+001  1.100000e+001
    endloop
  endfacet
  facet normal  0.000000e+000  0.000000e+000  1.000000e+000
    outer loop
      vertex  2.315000e+001  2.315000e+001  1.100000e+001
      vertex -2.100000e+001  2.100000e+001  1.100000e+001
      vertex  2.100000e+001  2.100000e+001  1.100000e+001
    endloop
  endfacet
  facet normal  -0.000000e+000  0.000000e+000  1.000000e+000
    outer loop
      vertex  2.315000e+001  2.315000e+001  1.100000e+001
      vertex  2.100000e+001  2.100000e+001  1.100000e+001
      vertex  2.315000e+001  6.666435e+000  1.100000e+001
    endloop
  endfacet
  facet normal  0.000000e+000  0.000000e+000  1.000000e+000
    outer loop
      vertex  2.315000e+001  6.666435e+000  1.100000e+001
      vertex  2.100000e+001  2.100000e+001  1.100000e+001
      vertex  2.100000e+001  6.666435e+000  1.100000e+001
    endloop
  endfacet
  facet normal  -0.000000e+000  0.000000e+000  1.000000e+000
    outer loop
      vertex  2.100000e+001 -7.301276e+000  2.000000e+000
      vertex  2.065000e+001 -7.301276e+000  2.000000e+000
      vertex  2.100000e+001 -2.100000e+001  2.000000e+000
    endloop
  endfacet
  facet normal  0.000000e+000  0.000000e+000  1.000000e+000
    outer loop
      vertex  2.100000e+001 -2.100000e+001  2.000000e+000
      vertex  2.065000e+001 -7.301276e+000  2.000000e+000
      vertex  1.325000e+001 -1.350000e+001  2.000000e+000
    endloop
  endfacet
  facet normal  0.000000e+000  0.000000e+000  1.000000e+000
    outer loop
      vertex  2.100000e+001 -2.100000e+001  2.000000e+000
      vertex  1.325000e+001 -1.350000e+001  2.000000e+000
      vertex -2.100000e+001 -2.100000e+001  2.000000e+000
    endloop
  endfacet
  facet normal  0.000000e+000  0.000000e+000  1.000000e+000
    outer loop
      vertex -2.100000e+001 -2.100000e+001  2.000000e+000
      vertex  1.325000e+001 -1.350000e+001  2.000000e+000
      vertex -1.325000e+001 -1.350000e+001  2.000000e+000
    endloop
  endfacet
  facet normal  0.000000e+000  0.000000e+000  1.000000e+000
    outer loop
      vertex -2.100000e+001 -2.100000e+001  2.000000e+000
      vertex -1.325000e+001 -1.350000e+001  2.000000e+000
      vertex -2.100000e+001  2.100000e+001  2.000000e+000
    endloop
  endfacet
  facet normal  0.000000e+000  0.000000e+000  9.999999e-001
    outer loop
      vertex -2.100000e+001  2.100000e+001  2.000000e+000
      vertex -1.325000e+001 -1.350000e+001  2.000000e+000
      vertex -1.325000e+001  1.350000e+001  2.000000e+000
    endloop
  endfacet
  facet normal  0.000000e+000  -0.000000e+000  1.000000e+000
    outer loop
      vertex -2.100000e+001  2.100000e+001  2.000000e+000
      vertex -1.325000e+001  1.350000e+001  2.000000e+000
      vertex  2.100000e+001  2.100000e+001  2.000000e+000
    endloop
  endfacet
  facet normal  0.000000e+000  0.000000e+000  1.000000e+000
    outer loop
      vertex  2.100000e+001  2.100000e+001  2.000000e+000
      vertex -1.325000e+001  1.350000e+001  2.000000e+000
      vertex  1.325000e+001  1.350000e+001  2.000000e+000
    endloop
  endfacet
  facet normal  -0.000000e+000  0.000000e+000  1.000000e+000
    outer loop
      vertex  2.100000e+001  2.100000e+001  2.000000e+000
      vertex  1.325000e+001  1.350000e+001  2.000000e+000
      vertex  2.100000e+001  6.666435e+000  2.000000e+000
    endloop
  endfacet
  facet normal  0.000000e+000  0.000000e+000  1.000000e+000
    outer loop
      vertex  2.100000e+001  6.666435e+000  2.000000e+000
      vertex  1.325000e+001  1.350000e+001  2.000000e+000
      vertex  2.065000e+001  6.666435e+000  2.000000e+000
    endloop
  endfacet
  facet normal  0.000000e+000  0.000000e+000  1.000000e+000
    outer loop
      vertex  1.325000e+001 -1.350000e+001  2.000000e+000
      vertex  2.065000e+001 -7.301276e+000  2.000000e+000
      vertex  1.325000e+001  1.350000e+001  2.000000e+000
    endloop
  endfacet
  facet normal  0.000000e+000  0.000000e+000  1.000000e+000
    outer loop
      vertex  1.325000e+001  1.350000e+001  2.000000e+000
      vertex  2.065000e+001 -7.301276e+000  2.000000e+000
      vertex  2.065000e+001  6.666435e+000  2.000000e+000
    endloop
  endfacet
  facet normal  0.000000e+000  1.000000e+000  0.000000e+000
    outer loop
      vertex  2.065000e+001 -7.301276e+000  0.000000e+000
      vertex  2.065000e+001 -7.301276e+000  2.000000e+000
      vertex  2.315000e+001 -7.301276e+000  0.000000e+000
    endloop
  endfacet
  facet normal  0.000000e+000  1.000000e+000  0.000000e+000
    outer loop
      vertex  2.315000e+001 -7.301276e+000  0.000000e+000
      vertex  2.065000e+001 -7.301276e+000  2.000000e+000
      vertex  2.100000e+001 -7.301276e+000  2.000000e+000
    endloop
  endfacet
  facet normal  -0.000000e+000  9.999999e-001  0.000000e+000
    outer loop
      vertex  2.315000e+001 -7.301276e+000  0.000000e+000
      vertex  2.100000e+001 -7.301276e+000  2.000000e+000
      vertex  2.315000e+001 -7.301276e+000  1.100000e+001
    endloop
  endfacet
  facet normal -2.217848e-007  1.000000e+000  5.298191e-008
    outer loop
      vertex  2.315000e+001 -7.301276e+000  1.100000e+001
      vertex  2.100000e+001 -7.301276e+000  2.000000e+000
      vertex  2.100000e+001 -7.301277e+000  1.100000e+001
    endloop
  endfacet
  facet normal  2.217848e-007 -9.999999e-001  0.000000e+000
    outer loop
      vertex  2.315000e+001  6.666435e+000  1.100000e+001
      vertex  2.100000e+001  6.666435e+000  1.100000e+001
      vertex  2.315000e+001  6.666435e+000  0.000000e+000
    endloop
  endfacet
  facet normal -4.928550e-008 -1.000000e+000 -5.298191e-008
    outer loop
      vertex  2.315000e+001  6.666435e+000  0.000000e+000
      vertex  2.100000e+001  6.666435e+000  1.100000e+001
      vertex  2.100000e+001  6.666435e+000  2.000000e+000
    endloop
  endfacet
  facet normal  0.000000e+000 -1.000000e+000  -0.000000e+000
    outer loop
      vertex  2.315000e+001  6.666435e+000  0.000000e+000
      vertex  2.100000e+001  6.666435e+000  2.000000e+000
      vertex  2.065000e+001  6.666435e+000  1.776357e-015
    endloop
  endfacet
  facet normal  0.000000e+000 -1.000000e+000  0.000000e+000
    outer loop
      vertex  2.065000e+001  6.666435e+000  1.776357e-015
      vertex  2.100000e+001  6.666435e+000  2.000000e+000
      vertex  2.065000e+001  6.666435e+000  2.000000e+000
    endloop
  endfacet
  facet normal  9.999999e-001  0.000000e+000  0.000000e+000
    outer loop
      vertex  2.065000e+001 -7.301276e+000  0.000000e+000
      vertex  2.065000e+001  6.666435e+000  1.776357e-015
      vertex  2.065000e+001 -7.301276e+000  2.000000e+000
    endloop
  endfacet
  facet normal  9.999999e-001  -0.000000e+000  0.000000e+000
    outer loop
      vertex  2.065000e+001 -7.301276e+000  2.000000e+000
      vertex  2.065000e+001  6.666435e+000  1.776357e-015
      vertex  2.065000e+001  6.666435e+000  2.000000e+000
    endloop
  endfacet
  facet normal  0.000000e+000 -9.999999e-001  0.000000e+000
    outer loop
      vertex -2.100000e+001  2.100000e+001  2.000000e+000
      vertex  2.100000e+001  2.100000e+001  2.000000e+000
      vertex -2.100000e+001  2.100000e+001  1.100000e+001
    endloop
  endfacet
  facet normal  0.000000e+000 -9.999999e-001  0.000000e+000
    outer loop
      vertex -2.100000e+001  2.100000e+001  1.100000e+001
      vertex  2.100000e+001  2.100000e+001  2.000000e+000
      vertex  2.100000e+001  2.100000e+001  1.100000e+001
    endloop
  endfacet
  facet normal  0.000000e+000  9.999999e-001  0.000000e+000
    outer loop
      vertex  2.100000e+001 -2.100000e+001  2.000000e+000
      vertex -2.100000e+001 -2.100000e+001  2.000000e+000
      vertex  2.100000e+001 -2.100000e+001  1.100000e+001
    endloop
  endfacet
  facet normal  0.000000e+000  9.999999e-001  0.000000e+000
    outer loop
      vertex  2.100000e+001 -2.100000e+001  1.100000e+001
      vertex -2.100000e+001 -2.100000e+001  2.000000e+000
      vertex -2.100000e+001 -2.100000e+001  1.100000e+001
    endloop
  endfacet
  facet normal  9.999999e-001  0.000000e+000  0.000000e+000
    outer loop
      vertex -2.100000e+001 -2.100000e+001  2.000000e+000
      vertex -2.100000e+001  2.100000e+001  2.000000e+000
      vertex -2.100000e+001 -2.100000e+001  1.100000e+001
    endloop
  endfacet
  facet normal  9.999999e-001  -0.000000e+000  0.000000e+000
    outer loop
      vertex -2.100000e+001 -2.100000e+001  1.100000e+001
      vertex -2.100000e+001  2.100000e+001  2.000000e+000
      vertex -2.100000e+001  2.100000e+001  1.100000e+001
    endloop
  endfacet
  facet normal  0.000000e+000  0.000000e+000  9.999999e-001
    outer loop
      vertex  1.325000e+001 -1.350000e+001  7.500000e+000
      vertex  1.175000e+001 -1.200000e+001  7.500000e+000
      vertex -1.325000e+001 -1.350000e+001  7.500000e+000
    endloop
  endfacet
  facet normal  0.000000e+000  0.000000e+000  9.999999e-001
    outer loop
      vertex -1.325000e+001 -1.350000e+001  7.500000e+000
      vertex  1.175000e+001 -1.200000e+001  7.500000e+000
      vertex -1.175000e+001 -1.200000e+001  7.500000e+000
    endloop
  endfacet
  facet normal  0.000000e+000  0.000000e+000  1.000000e+000
    outer loop
      vertex -1.325000e+001 -1.350000e+001  7.500000e+000
      vertex -1.175000e+001 -1.200000e+001  7.500000e+000
      vertex -1.325000e+001  1.350000e+001  7.500000e+000
    endloop
  endfacet
  facet normal  0.000000e+000  0.000000e+000  1.000000e+000
    outer loop
      vertex -1.325000e+001  1.350000e+001  7.500000e+000
      vertex -1.175000e+001 -1.200000e+001  7.500000e+000
      vertex -1.175000e+001  1.200000e+001  7.500000e+000
    endloop
  endfacet
  facet normal  0.000000e+000  -0.000000e+000  9.999999e-001
    outer loop
      vertex -1.325000e+001  1.350000e+001  7.500000e+000
      vertex -1.175000e+001  1.200000e+001  7.500000e+000
      vertex  1.325000e+001  1.350000e+001  7.500000e+000
    endloop
  endfacet
  facet normal  0.000000e+000  0.000000e+000  9.999999e-001
    outer loop
      vertex  1.325000e+001  1.350000e+001  7.500000e+000
      vertex -1.175000e+001  1.200000e+001  7.500000e+000
      vertex  1.175000e+001  1.200000e+001  7.500000e+000
    endloop
  endfacet
  facet normal  -0.000000e+000  0.000000e+000  1.000000e+000
    outer loop
      vertex  1.325000e+001  1.350000e+001  7.500000e+000
      vertex  1.175000e+001  1.200000e+001  7.500000e+000
      vertex  1.325000e+001 -1.350000e+001  7.500000e+000
    endloop
  endfacet
  facet normal  0.000000e+000  0.000000e+000  1.000000e+000
    outer loop
      vertex  1.325000e+001 -1.350000e+001  7.500000e+000
      vertex  1.175000e+001  1.200000e+001  7.500000e+000
      vertex  1.175000e+001 -1.200000e+001  7.500000e+000
    endloop
  endfacet
  facet normal  0.000000e+000  1.000000e+000  0.000000e+000
    outer loop
      vertex -1.325000e+001  1.350000e+001  2.000000e+000
      vertex -1.325000e+001  1.350000e+001  7.500000e+000
      vertex  1.325000e+001  1.350000e+001  2.000000e+000
    endloop
  endfacet
  facet normal  0.000000e+000  1.000000e+000  -0.000000e+000
    outer loop
      vertex  1.325000e+001  1.350000e+001  2.000000e+000
      vertex -1.325000e+001  1.350000e+001  7.500000e+000
      vertex  1.325000e+001  1.350000e+001  7.500000e+000
    endloop
  endfacet
  facet normal -1.000000e+000  0.000000e+000  0.000000e+000
    outer loop
      vertex -1.325000e+001 -1.350000e+001  2.000000e+000
      vertex -1.325000e+001 -1.350000e+001  7.500000e+000
      vertex -1.325000e+001  1.350000e+001  2.000000e+000
    endloop
  endfacet
  facet normal -1.000000e+000  0.000000e+000  0.000000e+000
    outer loop
      vertex -1.325000e+001  1.350000e+001  2.000000e+000
      vertex -1.325000e+001 -1.350000e+001  7.500000e+000
      vertex -1.325000e+001  1.350000e+001  7.500000e+000
    endloop
  endfacet
  facet normal  0.000000e+000 -1.000000e+000  -0.000000e+000
    outer loop
      vertex  1.325000e+001 -1.350000e+001  2.000000e+000
      vertex  1.325000e+001 -1.350000e+001  7.500000e+000
      vertex -1.325000e+001 -1.350000e+001  2.000000e+000
    endloop
  endfacet
  facet normal  0.000000e+000 -1.000000e+000  0.000000e+000
    outer loop
      vertex -1.325000e+001 -1.350000e+001  2.000000e+000
      vertex  1.325000e+001 -1.350000e+001  7.500000e+000
      vertex -1.325000e+001 -1.350000e+001  7.500000e+000
    endloop
  endfacet
  facet normal  1.000000e+000  0.000000e+000  0.000000e+000
    outer loop
      vertex  1.325000e+001  1.350000e+001  2.000000e+000
      vertex  1.325000e+001  1.350000e+001  7.500000e+000
      vertex  1.325000e+001 -1.350000e+001  2.000000e+000
    endloop
  endfacet
  facet normal  1.000000e+000  0.000000e+000  0.000000e+000
    outer loop
      vertex  1.325000e+001 -1.350000e+001  2.000000e+000
      vertex  1.325000e+001  1.350000e+001  7.500000e+000
      vertex  1.325000e+001 -1.350000e+001  7.500000e+000
    endloop
  endfacet
  facet normal  0.000000e+000  0.000000e+000  1.000000e+000
    outer loop
      vertex  1.175000e+001 -1.200000e+001  1.150000e+000
      vertex  8.500000e+000 -8.500000e+000  1.150000e+000
      vertex -1.175000e+001 -1.200000e+001  1.150000e+000
    endloop
  endfacet
  facet normal  0.000000e+000  0.000000e+000  1.000000e+000
    outer loop
      vertex -1.175000e+001 -1.200000e+001  1.150000e+000
      vertex  8.500000e+000 -8.500000e+000  1.150000e+000
      vertex -8.500000e+000 -8.500000e+000  1.150000e+000
    endloop
  endfacet
  facet normal  0.000000e+000  0.000000e+000  1.000000e+000
    outer loop
      vertex -1.175000e+001 -1.200000e+001  1.150000e+000
      vertex -8.500000e+000 -8.500000e+000  1.150000e+000
      vertex -1.175000e+001  1.200000e+001  1.150000e+000
    endloop
  endfacet
  facet normal  0.000000e+000  0.000000e+000  1.000000e+000
    outer loop
      vertex -1.175000e+001  1.200000e+001  1.150000e+000
      vertex -8.500000e+000 -8.500000e+000  1.150000e+000
      vertex -8.500000e+000  8.500000e+000  1.150000e+000
    endloop
  endfacet
  facet normal  0.000000e+000  -0.000000e+000  1.000000e+000
    outer loop
      vertex -1.175000e+001  1.200000e+001  1.150000e+000
      vertex -8.500000e+000  8.500000e+000  1.150000e+000
      vertex  1.175000e+001  1.200000e+001  1.150000e+000
    endloop
  endfacet
  facet normal  0.000000e+000  0.000000e+000  1.000000e+000
    outer loop
      vertex  1.175000e+001  1.200000e+001  1.150000e+000
      vertex -8.500000e+000  8.500000e+000  1.150000e+000
      vertex  8.500000e+000  8.500000e+000  1.150000e+000
    endloop
  endfacet
  facet normal  -0.000000e+000  0.000000e+000  1.000000e+000
    outer loop
      vertex  1.175000e+001  1.200000e+001  1.150000e+000
      vertex  8.500000e+000  8.500000e+000  1.150000e+000
      vertex  1.175000e+001 -1.200000e+001  1.150000e+000
    endloop
  endfacet
  facet normal  0.000000e+000  0.000000e+000  1.000000e+000
    outer loop
      vertex  1.175000e+001 -1.200000e+001  1.150000e+000
      vertex  8.500000e+000  8.500000e+000  1.150000e+000
      vertex  8.500000e+000 -8.500000e+000  1.150000e+000
    endloop
  endfacet
  facet normal  0.000000e+000 -1.000000e+000  0.000000e+000
    outer loop
      vertex -8.500000e+000  8.500000e+000  0.000000e+000
      vertex  8.500000e+000  8.500000e+000  0.000000e+000
      vertex -8.500000e+000  8.500000e+000  1.150000e+000
    endloop
  endfacet
  facet normal  0.000000e+000 -1.000000e+000  0.000000e+000
    outer loop
      vertex -8.500000e+000  8.500000e+000  1.150000e+000
      vertex  8.500000e+000  8.500000e+000  0.000000e+000
      vertex  8.500000e+000  8.500000e+000  1.150000e+000
    endloop
  endfacet
  facet normal  1.000000e+000  0.000000e+000  0.000000e+000
    outer loop
      vertex -8.500000e+000 -8.500000e+000  0.000000e+000
      vertex -8.500000e+000  8.500000e+000  0.000000e+000
      vertex -8.500000e+000 -8.500000e+000  1.150000e+000
    endloop
  endfacet
  facet normal  1.000000e+000  -0.000000e+000  0.000000e+000
    outer loop
      vertex -8.500000e+000 -8.500000e+000  1.150000e+000
      vertex -8.500000e+000  8.500000e+000  0.000000e+000
      vertex -8.500000e+000  8.500000e+000  1.150000e+000
    endloop
  endfacet
  facet normal  0.000000e+000  1.000000e+000  0.000000e+000
    outer loop
      vertex  8.500000e+000 -8.500000e+000  0.000000e+000
      vertex -8.500000e+000 -8.500000e+000  0.000000e+000
      vertex  8.500000e+000 -8.500000e+000  1.150000e+000
    endloop
  endfacet
  facet normal  0.000000e+000  1.000000e+000  0.000000e+000
    outer loop
      vertex  8.500000e+000 -8.500000e+000  1.150000e+000
      vertex -8.500000e+000 -8.500000e+000  0.000000e+000
      vertex -8.500000e+000 -8.500000e+000  1.150000e+000
    endloop
  endfacet
  facet normal -1.000000e+000  0.000000e+000  0.000000e+000
    outer loop
      vertex  8.500000e+000  8.500000e+000  0.000000e+000
      vertex  8.500000e+000 -8.500000e+000  0.000000e+000
      vertex  8.500000e+000  8.500000e+000  1.150000e+000
    endloop
  endfacet
  facet normal -1.000000e+000  -0.000000e+000  0.000000e+000
    outer loop
      vertex  8.500000e+000  8.500000e+000  1.150000e+000
      vertex  8.500000e+000 -8.500000e+000  0.000000e+000
      vertex  8.500000e+000 -8.500000e+000  1.150000e+000
    endloop
  endfacet
  facet normal -1.000000e+000  0.000000e+000  0.000000e+000
    outer loop
      vertex  1.175000e+001  1.200000e+001  1.150000e+000
      vertex  1.175000e+001 -1.200000e+001  1.150000e+000
      vertex  1.175000e+001  1.200000e+001  7.500000e+000
    endloop
  endfacet
  facet normal -1.000000e+000  -0.000000e+000  0.000000e+000
    outer loop
      vertex  1.175000e+001  1.200000e+001  7.500000e+000
      vertex  1.175000e+001 -1.200000e+001  1.150000e+000
      vertex  1.175000e+001 -1.200000e+001  7.500000e+000
    endloop
  endfacet
  facet normal  0.000000e+000  1.000000e+000  0.000000e+000
    outer loop
      vertex  1.175000e+001 -1.200000e+001  1.150000e+000
      vertex -1.175000e+001 -1.200000e+001  1.150000e+000
      vertex  1.175000e+001 -1.200000e+001  7.500000e+000
    endloop
  endfacet
  facet normal  0.000000e+000  1.000000e+000  0.000000e+000
    outer loop
      vertex  1.175000e+001 -1.200000e+001  7.500000e+000
      vertex -1.175000e+001 -1.200000e+001  1.150000e+000
      vertex -1.175000e+001 -1.200000e+001  7.500000e+000
    endloop
  endfacet
  facet normal  1.000000e+000  0.000000e+000  0.000000e+000
    outer loop
      vertex -1.175000e+001 -1.200000e+001  1.150000e+000
      vertex -1.175000e+001  1.200000e+001  1.150000e+000
      vertex -1.175000e+001 -1.200000e+001  7.500000e+000
    endloop
  endfacet
  facet normal  1.000000e+000  -0.000000e+000  0.000000e+000
    outer loop
      vertex -1.175000e+001 -1.200000e+001  7.500000e+000
      vertex -1.175000e+001  1.200000e+001  1.150000e+000
      vertex -1.175000e+001  1.200000e+001  7.500000e+000
    endloop
  endfacet
  facet normal  0.000000e+000 -1.000000e+000  0.000000e+000
    outer loop
      vertex -1.175000e+001  1.200000e+001  1.150000e+000
      vertex  1.175000e+001  1.200000e+001  1.150000e+000
      vertex -1.175000e+001  1.200000e+001  7.500000e+000
    endloop
  endfacet
  facet normal  0.000000e+000 -1.000000e+000  0.000000e+000
    outer loop
      vertex -1.175000e+001  1.200000e+001  7.500000e+000
      vertex  1.175000e+001  1.200000e+001  1.150000e+000
      vertex  1.175000e+001  1.200000e+001  7.500000e+000
    endloop
  endfacet
  facet normal  0.000000e+000 -1.000000e+000  0.000000e+000
    outer loop
      vertex  2.315000e+001 -2.315000e+001  1.100000e+001
      vertex -2.315000e+001 -2.315000e+001  1.100000e+001
      vertex  2.315000e+001 -2.315000e+001  0.000000e+000
    endloop
  endfacet
  facet normal  0.000000e+000 -1.000000e+000  0.000000e+000
    outer loop
      vertex  2.315000e+001 -2.315000e+001  0.000000e+000
      vertex -2.315000e+001 -2.315000e+001  1.100000e+001
      vertex -2.315000e+001 -2.315000e+001  0.000000e+000
    endloop
  endfacet
  facet normal -1.000000e+000  -0.000000e+000  0.000000e+000
    outer loop
      vertex -2.315000e+001 -2.315000e+001  1.100000e+001
      vertex -2.315000e+001  2.315000e+001  1.100000e+001
      vertex -2.315000e+001 -2.315000e+001  0.000000e+000
    endloop
  endfacet
  facet normal -1.000000e+000  0.000000e+000  0.000000e+000
    outer loop
      vertex -2.315000e+001 -2.315000e+001  0.000000e+000
      vertex -2.315000e+001  2.315000e+001  1.100000e+001
      vertex -2.315000e+001  2.315000e+001  0.000000e+000
    endloop
  endfacet
  facet normal  0.000000e+000  1.000000e+000  0.000000e+000
    outer loop
      vertex -2.315000e+001  2.315000e+001  1.100000e+001
      vertex  2.315000e+001  2.315000e+001  1.100000e+001
      vertex -2.315000e+001  2.315000e+001  0.000000e+000
    endloop
  endfacet
  facet normal  0.000000e+000  1.000000e+000  0.000000e+000
    outer loop
      vertex -2.315000e+001  2.315000e+001  0.000000e+000
      vertex  2.315000e+001  2.315000e+001  1.100000e+001
      vertex  2.315000e+001  2.315000e+001  0.000000e+000
    endloop
  endfacet
endsolid CATIA STL
